<?xml version="1.0" encoding="UTF-8"?>
<svg id="Capa_1" data-name="Capa 1" xmlns="http://www.w3.org/2000/svg" viewBox="0 0 1920 1080">
  <defs>
    <style>
      .cls-1 {
        fill: #fff;
      }
    </style>
  </defs>
  <path class="cls-1" d="M987.77,300.97c28.86,143.45,116.31,331.7,289.65,323.91,128.21-5.76,265.33-93.65,366.57-166.17-6.34-37.45-11.2-87.66,13.16-119.79,32.09-42.31,92.75-71.19,141.8-88.44l-346.11,724.99c-103.83-61.65-222.15-107.42-341.23-130.03-232.25-44.08-480.4,7.08-685.05,120.49-1.05-4.48,2.5-5.67,4.74-8.35,96.41-114.97,315-177.29,459.76-191.68,172.52-17.15,348.48,16.7,514.85,59.09l87.51-176.23c-43.95,17.59-87.28,36.9-133.14,49.39-65.03,17.72-130.01,26.74-196.72,11.9-97.23-21.64-175.44-97.06-202.42-192.47-6.11-.95-3.71.55-4.98,3.35-13,28.68-18.46,49.63-37.43,77.07-118.37,171.21-323.96,127.76-486.67,53.55l-89.08-45.72,37,224.15L121.05,250.47c48.67,19.33,106.93,45.64,139.4,88.45,24.68,32.54,19.09,83.06,13.66,121.01,102.61,71.05,237.36,159.17,366.08,164.94,173.94,7.8,257.92-178.03,290.16-320.85l-.6-3.03c-65.44-47.19-72.47-96.89-27.34-162.93,15.46-22.62,37.34-45.9,57.27-63.91,36.37,38.75,95.45,95.97,83.51,154.49-5.55,27.22-31.6,58.6-55.41,72.31Z"/>
  <path class="cls-1" d="M550.65,560.47l54.64-120.45c-29.83-22.2-46.15-49.72-42.41-87.9,2.19-22.36,20.29-72.32,33.43-90.62,5.89-8.2,21.98,6.05,29.09,10.88,46.77,31.78,78.68,66.38,60.02,125.86-2.19,6.98-12.44,23.44-9.59,28.7l101.68,79.91c-51.69,83.72-142.51,83.08-226.86,53.63Z"/>
  <path class="cls-1" d="M1311.94,257.72c20.73,44.79,51.5,98.66,24.38,146.97-8.61,15.34-21.93,23.07-31.04,37.31l52.12,118.47c-13.05,4.5-26.51,8.53-40.09,11.26-51.99,10.43-100.87,13.39-144.84-20.81-6-4.67-45.22-42.58-41.77-47.55l104.79-76.66c-12-28.68-26-59.32-12.95-90.38,10.19-24.26,45.54-54.35,67.71-68.28,3.67-2.31,18.49-12.59,21.69-10.32Z"/>
</svg>