<?xml version="1.0" encoding="UTF-8"?>
<svg id="Capa_1" data-name="Capa 1" xmlns="http://www.w3.org/2000/svg" viewBox="0 0 1920 1080">
  <defs>
    <style>
      .cls-1 {
        fill: #fff;
      }
    </style>
  </defs>
  <path class="cls-1" d="M265.68,912.12c-3.42,0-6.8-.71-10.07-2.11-5.43-2.33-9.75-6.25-12.85-11.66-3.06-5.36-4.52-11.26-4.32-17.55.18-6.07,1.02-11.96,2.5-17.49,3.94-17.22,8.97-34.49,14.92-51.27,5.82-16.39,11.73-33.4,17.57-50.55,9.3-27.57,19.04-55.33,28.95-82.53,9.46-25.98,19.26-52.29,29.16-78.27-14.04,3.94-28.28,8.03-42.4,12.18-15.19,4.47-30.78,8.66-46.34,12.46-15.47,3.78-31.26,7.06-46.92,9.76-15.71,2.71-31.9,4.45-48.12,5.17-2.73.12-5.5.18-8.22.18-13.57,0-27.27-1.53-40.72-4.56-16.45-3.69-30.21-12.67-40.91-26.7-1.49-1.86-3.06-4.25-4.75-7.27-1.67-2.97-3.09-6.18-4.21-9.54-1.13-3.41-1.81-6.77-1.99-9.98-.22-3.57.76-6.68,2.9-9.24l.06-.07.06-.06c1.77-1.77,3.92-2.67,6.38-2.67.7,0,1.44.08,2.19.23,1.88.38,3.17,1.24,3.82,2.57.68,1.39.55,3.11-.38,5.12.18.7.37,1.63.58,2.86.32,1.97.8,3.59,1.44,4.84l.04.08.03.08c.65,1.64,1.49,3.24,2.51,4.77,1.04,1.56,2.13,3.29,3.25,5.14,4.84,6.55,11.15,11.97,18.76,16.12,8.06,4.56,16.65,7.48,25.55,8.7,7.01.97,14.17,1.46,21.29,1.46,2.06,0,4.15-.04,6.21-.12,17.15-.35,34.24-1.98,50.86-4.83,16.68-2.87,33.55-6.49,50.14-10.78,16.67-4.29,33.38-8.92,49.7-13.76,15.73-4.67,31.89-9.18,48.06-13.41v-.55l3.01-6.01c-9.91-19.61-22.13-38.08-36.34-54.91-14.47-17.13-30.24-33.61-46.89-48.99-16.69-15.41-34.13-30.47-51.83-44.76-17.89-14.44-35.29-29-51.71-43.28-4.29-3.57-8.98-7.45-14.02-11.59-5.07-4.15-9.94-8.56-14.48-13.1-4.56-4.55-8.73-9.45-12.38-14.57-3.75-5.24-6.4-11.11-7.89-17.46l.58-.25c-3.08-12.35-1.67-24.17,4.2-35.19,6.06-11.38,14.17-20.87,24.1-28.23,11.65-8.37,24.84-15.09,39.22-20,13.8-4.72,27.73-9.36,41.41-13.79,29.47-10.05,60.45-19.33,92.07-27.59,31.64-8.26,63.51-15.99,94.73-22.98,31.17-6.98,63.22-13.8,95.24-20.28l46.31-9.57c1.92-2.56,3.94-5.34,6-8.26,2.19-3.1,4.59-6.15,7.13-9.05,5.42-6.85,11.28-13.53,17.42-19.84,6.22-6.4,13.29-11.89,21-16.29,1.35-.81,2.72-1.24,4.04-1.24.94,0,1.86.22,2.71.64,1.74.88,3.17,2.09,4.25,3.6,1.24,1.75,1.62,3.74,1.14,5.92-.47,2.09-1.63,3.84-3.45,5.22l-.07.05-.07.05c-2.78,1.74-5.51,3.77-8.14,6.04-2.69,2.32-5.29,4.75-7.74,7.2-3.89,3.88-7.57,8.01-10.93,12.25-2.46,3.1-4.91,6.22-7.31,9.32,19.17-3.63,38.27-7.27,57.3-10.9,20.82-3.97,42.04-7.79,63.06-11.36,31.95-5.38,64.28-10.11,96.1-14.06,31.83-3.94,64.54-6.86,97.23-8.66,15.62-.72,31.56-1.36,47.37-1.9,5.98-.2,12.05-.3,18.05-.3,10.02,0,20.2.29,30.27.85,16.04.9,32.12,2.69,47.82,5.3,15.75,2.62,31.25,6.8,46.09,12.41,2.9.97,4.54,3.47,4.54,7.01s-2.01,5.58-5.37,5.58c-.38,0-.79-.03-1.21-.08-15.52-2.12-31.43-4.12-47.31-5.95-15.54-1.78-31.6-3.05-47.73-3.78-14.01-.6-28.21-.9-42.19-.9-19.25,0-38.75.58-57.94,1.71-33.19,1.98-66.81,5.16-99.93,9.45-33.11,4.29-66.55,9.57-99.42,15.67-33.27,6.19-66.29,12.56-98.15,18.93l-26.78,4.72c-8.04,12.27-15.58,24.9-22.43,37.54-6.93,12.79-13.77,25.4-20.51,37.83l-.31.58c-16.15,30.86-31.51,62.4-45.64,93.72-14.16,31.35-28.25,63.64-41.9,95.97-9.78,23.92-19.43,47.75-28.65,70.82-9.24,23.09-18.59,46.64-27.8,70.02l.52,1.04c12.03-2.72,24.46-5.25,36.96-7.51,12.98-2.34,26.17-3.9,39.19-4.63,1.32-.07,2.65-.11,3.97-.11,5.33,0,10.73.6,16.05,1.78,6.83,1.52,12.98,4.98,18.29,10.27,4.21,4.22,7.02,9.18,8.37,14.74,1.35,5.59,1.05,11.17-.87,16.56l-.04.12-.06.11c-1.06,2.11-2.85,3.26-5.03,3.26-2.01,0-4.16-1.24-4.16-4.71v-.11c.33-5.91-.96-10.52-3.81-13.7-2.99-3.32-6.96-5.76-11.82-7.27-5.01-1.56-10.39-2.44-15.97-2.62-1.87-.06-3.69-.09-5.41-.09-3.47,0-6.67.12-9.51.35-10.29,1.06-20.61,2.51-30.64,4.3-9.33,1.67-18.93,3.67-28.57,5.96,9.63,25.14,15.43,51.55,17.23,78.49,1.81,27.13-.58,54.28-7.09,80.67-6.5,26.37-16.86,51.66-30.78,75.18-13.9,23.46-30.46,45.24-49.23,64.74-4.35,4.35-9.03,8.66-13.93,12.85-5.06,4.31-10.86,7.44-17.23,9.32-2.38.63-4.7.95-6.97.95ZM267.77,891.64c.64.15,1.29.23,1.95.23,1.78,0,3.71-.56,5.71-1.68,3.09-1.72,6.05-3.9,8.8-6.47,2.79-2.62,5.46-5.47,7.94-8.47,2.54-3.1,4.77-5.61,6.62-7.45,9.21-9.92,18.06-20.95,26.28-32.72,7.46-11.01,14.33-22.59,20.42-34.39,6.04-11.73,11.09-24,15.01-36.47l.44-1.4h1.08c7.89-25.2,11.81-51.09,11.64-76.96-.18-26.35-4.6-52.69-13.13-78.3-.69-1.72-1.4-3.58-2.17-5.69-.09-.24-.18-.48-.26-.72l-12.75,34c-10.39,27.21-20.48,54.85-30,82.17-9.54,27.33-19.09,55.17-28.39,82.74-2.68,8.02-5.35,16.05-8.03,24.08l-.62,1.87c-2.6,7.78-5.19,15.56-7.78,23.33l-.88,2.63c-.71,2.11-1.7,5.36-2.95,9.66-1.24,4.22-2.22,8.59-2.92,13.01-.69,4.27-.78,8.15-.27,11.56.43,2.83,1.78,4.55,4.26,5.41ZM198.91,254.75c-6.24,2.09-12.86,4.45-19.7,7.02-7.05,2.64-13.97,5.79-20.58,9.35-6.48,3.5-12.34,7.76-17.41,12.66-4.99,4.82-8.73,10.74-11.13,17.61-2.36,6.74-2.54,13.03-.54,18.69,2.08,5.89,5.24,11.51,9.41,16.73,4.25,5.31,9.16,10.31,14.6,14.86,5.59,4.69,10.73,9.02,15.42,12.99,20.23,17.35,40.69,34.44,60.82,50.82,20.34,16.57,40.31,34.26,59.35,52.58,12.97,12.62,25.4,26.14,36.94,40.2,10.68,13.02,20.57,27.01,29.44,41.63,11.39-29.25,23.17-58.54,35.05-87.11,12.41-29.85,25.43-60.08,38.7-89.84,13.65-30.54,27.86-61.22,42.21-91.19,14.4-30.06,30.26-60.04,47.13-89.12,2.54-4,4.97-8.06,7.29-12.15,1.58-2.79,3.29-5.56,5.1-8.27-55.05,10.85-110.33,22.53-164.38,34.73-55.59,12.56-111.38,28.73-165.83,48.07l-.8.29-1.1-.55Z"/>
  <path class="cls-1" d="M573.24,670.95c-3.27,0-6.49-.96-9.57-2.86-4.96-3.3-7.44-7.77-7.44-13.33,0-4.94.37-9.7,1.11-14.12,2.18-12.02,6.24-24.38,12.06-36.76,1.5-3,3.18-5.89,5.01-8.64,1.8-2.69,3.61-5.49,5.38-8.33l.05-.07,5-6.67,1.63-1.63c.95-1.23,1.96-2.06,3.01-2.5.19-.54.48-1,.87-1.39,1.08-1.09,2.42-1.66,3.84-1.66s2.74.57,3.84,1.66l.09.09c3.51,3.95,3.84,8.26.96,12.46-2.31,3.38-4.39,6.54-6.17,9.4-6.72,10.6-11.92,21.35-15.46,31.95-.74,2.97-1.35,5.58-1.86,7.98-.58,2.7-1.22,5.45-1.91,8.18-.34,1.37-.79,3-1.38,4.95-.36,1.19-.35,2.08.02,2.65l.11.17.08.19c.18.45.33.77.45,1,.65-.16,1.5-.34,2.63-.57,2.34-.67,4.71-1.69,7.05-3.04,2.58-1.47,4.98-2.76,7.13-3.84l.07-.04,16.3-6.52c10.95-4.59,22.15-9.23,33.25-13.79,10.96-4.49,22.13-9.3,33.2-14.3,5.79-2.53,11.38-4.96,16.79-7.31,5.37-2.32,10.78-4.94,16.08-7.77l.12-.06c3.94-1.79,8.09-3.86,12.31-6.16,3.59-1.94,7.36-2.93,11.21-2.93.73,0,1.48.04,2.23.11l1.68-2.8,1.38.28c2.51.51,4.25,1.99,5.02,4.3.71,2.13.58,4.19-.38,6.12-2.74,5.47-7.63,9.7-14.54,12.58-6.49,2.7-12.1,5.15-16.7,7.27-6.07,2.86-12.47,5.69-19,8.41-6.37,2.65-12.91,5.47-19.43,8.37-13.58,5.82-25.88,11.04-37.63,15.97-13.24,5.57-25.53,10.79-37.58,15.95-4.24,1.77-8.99,3.69-14.12,5.7-2.28.9-4.57,1.35-6.81,1.35ZM612.11,555.74c-.96,0-1.99-.17-3.07-.49-5.65-1.69-6.83-5.51-6.83-8.41v-.12c.37-6.38,2.27-12.84,5.64-19.21,3.31-6.25,7.03-11.83,11.06-16.59,1.75-2.01,3.64-3.01,5.64-3.01,1.74,0,3.45.77,5.09,2.3,4.25,3.97,3.61,7.89,2.32,10.47-1.42,2.84-2.79,5.49-4.08,7.9-1.2,2.23-2.35,4.79-3.4,7.6l-3.13,9.41c-.08.99-.5,2.2-1.28,3.76l-.15.29-.62.62-.28.64c-1.78,4-4.74,4.84-6.9,4.84Z"/>
  <path class="cls-1" d="M712.2,699.26c-3.44,0-6.31-1.78-8.55-5.29l-.06-.1c-2-3.6-2.72-8.1-2.13-13.36.54-4.84,1.18-9.15,1.9-12.8.74-6.21,2.04-12.4,3.85-18.39,1.82-6,3.83-12.12,5.98-18.21,2.15-6.09,4.43-12.12,6.79-17.94,2.35-5.77,4.79-11.72,7.3-17.86,1.67-4.33,3.44-9.18,5.37-14.77,1.86-5.41,4.53-10.26,7.91-14.41l.06-.08.07-.07c1.38-1.38,2.93-2.08,4.58-2.08,1.11,0,2.23.32,3.34.96h1.45l.36.15c2.78,1.12,3.82,3.67,2.77,6.81-3.99,11.94-8.27,23.89-12.74,35.52-4.4,11.44-8.67,23.33-12.68,35.35-1.04,3.12-2.03,6.36-2.95,9.64-.87,3.15-1.68,6.37-2.39,9.56l-1.59,11.14v1.44c7.22-6.45,13.9-13.91,19.91-22.23,7.02-9.72,14.04-19.2,20.85-28.17,3.94-5.38,7.91-10.79,11.88-16.2,3.96-5.41,7.93-10.82,11.9-16.23,2.85-3.92,6.11-8.71,9.67-14.23,3.85-5.98,8.6-9.81,14.11-11.39,1.41-.47,2.89-.73,4.31-.73,2.18,0,4.26.59,6.19,1.75,3.09,1.85,5.28,4.47,6.52,7.77,1.2,2.79,1.42,6.26.64,10.24-.38,2.6-1.04,5.34-1.97,8.13-.32.95-.11,1.36-.04,1.5.32.62,1.3,1.2,2.77,1.64.4.13.8.19,1.25.19.53,0,1.13-.08,1.79-.22,1.76-.38,3.19-.58,4.38-.59l14.5-1.61c12.61-1.44,25.36-2.8,37.88-4.06,12.16-1.21,24.55-2.19,36.84-2.92l.14-.61c3.22,0,5.23,1.85,5.51,5.07.25,3.05-1.06,5.31-3.69,6.36-13.85,5.46-28.68,8.97-44.1,10.41-15.33,1.44-30.56,2.89-45.71,4.33-3.34.48-6.87.73-10.39.73-1.77,0-3.57-.06-5.35-.19-5.92-.4-10.55-3.47-13.77-9.12l-.04-.08-.04-.08c-1.7-3.72-2.24-7.77-1.62-12.07-.1.15-.2.3-.3.45-1.47,2.2-3.14,4.43-4.95,6.61-8.86,12.18-17.48,24.17-25.64,35.63-8.46,11.88-17.5,23.75-26.85,35.26-1.45,1.81-3.92,4.83-7.31,8.94-3.52,4.25-7.32,8.24-11.29,11.84-4.15,3.78-8.47,6.46-12.86,7.98-1.31.46-2.59.69-3.8.69Z"/>
  <path class="cls-1" d="M909.34,691.32c-1.01,0-2.05-.08-3.09-.24-5.44-.84-9.25-4.19-11.31-9.96-2.3-6.52-2.31-13.58-.03-21,2.16-7.04,4.15-13.43,5.95-19.21,2.15-7.9,4.63-15.77,7.33-23.34,2.64-7.39,5.47-15.05,8.4-22.76,3.2-7.97,6.03-14.88,8.68-21.16,2.86-6.79,5.96-13.73,9.23-20.63l11.38-22.76c2.28-4.17,4.2-7.19,5.92-9.3,1.81-2.21,4.72-4.39,8.91-6.67.85-.54,1.76-.82,2.71-.82s1.88.27,2.81.8c1.91,1.1,2.91,2.82,2.91,4.98,0,4.05-.19,7.17-.57,9.28-.41,2.22-1.54,4.98-3.46,8.46l-.05.09c-1.76,2.81-3.36,5.74-4.75,8.71-1.41,2.99-2.87,6-4.35,8.97-6.08,11.79-11.51,23.74-16.16,35.54-5.02,12.19-9.65,24.7-13.75,37.21-4.11,12.52-7.64,25.2-10.5,37.69-.08.31-.15.62-.22.92,1.57-1.61,3.12-3.24,4.65-4.89,2.32-2.49,4.76-5.21,7.26-8.07l.09-.1,30.83-30.83,60.02-61.64c2.11-2.11,4.4-3.17,6.84-3.17,1.65,0,3.35.5,5.05,1.48,4.24,2.46,5.77,6.33,4.45,11.18l-11.37,38.98c-.75,2.25-1.65,4.88-2.74,7.95-.56,1.59-.91,3.1-1.04,4.52l.43-.21c1.37-.69,3.12-1.73,5.19-3.12l.1-.06c8.48-4.94,16.37-10.77,23.45-17.32,7.2-6.66,14.89-13.16,22.85-19.32,2.18-1.82,5.12-4.11,8.68-6.78,3.68-2.77,7.63-5.12,11.73-6.98,4.15-1.88,8.27-3.03,12.27-3.42.53-.05,1.06-.07,1.57-.07,3.7,0,7.04,1.28,9.94,3.8l.1.09c4.13,4.14,5.32,8.99,3.43,14.02-1.63,4.35-3.38,8.57-5.19,12.57-2.17,5.06-4.35,10.24-6.46,15.35-2.17,5.24-4.16,10.4-5.91,15.32-.37,1.1-.94,2.52-1.68,4.19-.5,1.11-.67,2.04-.47,2.61,1.04,3.11,2.42,3.5,3.51,3.5h1.92l6.19-1.55,25.91-8.1c11.21-3.85,22.95-7.85,34.84-11.88,12.52-4.24,23.92-8.13,34.88-11.9,5.1-1.82,10-3.63,14.53-5.38,4.61-1.77,9.54-3.6,14.65-5.43l9.66-3.22c.3-.14.65-.29,1.03-.42l.86-.51c1.39-.83,2.82-1.26,4.27-1.26.97,0,1.95.19,2.91.57,2.22.9,3.83,2.18,4.78,3.83.93,1.64,1.29,3.58,1.07,5.79-.25,2.47-1.58,4.43-3.94,5.85l-.13.07-.84.42c-.44.37-1.22.88-2.95,1.74-1.49.75-3.99,1.82-7.65,3.28-3.62,1.81-7.31,3.38-10.98,4.66-3.57,1.25-7.19,2.61-10.74,4.03-33.12,11.88-66.44,23.35-99.1,34.12-5.04,1.81-10.18,3.46-15.23,4.89-2.41.69-4.87,1.04-7.29,1.04-3.02,0-6.08-.55-9.08-1.62-6.79-2.79-11.01-7.14-12.61-12.98-1.54-5.58-1.35-11.51.56-17.63l.04-.12.05-.11c1.8-3.95,3.51-8.01,5.1-12.07,1.65-4.22,3.39-8.33,5.15-12.21l3.18-8.47c-1.2.8-2.44,1.63-3.72,2.51-4.34,2.97-5.58,4.01-5.94,4.36l-.09.09-.1.08c-3.22,2.51-6.39,5.05-9.42,7.54-2.99,2.46-5.95,5.15-8.78,7.98l-.1.09c-5.71,4.99-11.74,10.02-17.92,14.93-6.27,4.97-13.17,8.99-20.52,11.92-3.85,1.62-7.57,2.45-11.01,2.45-3.08,0-6.02-.66-8.72-1.97-6.03-2.91-8.68-9.03-7.88-18.2l.02-.15c.73-4.41,1.75-8.86,3.03-13.21.76-2.61,1.49-5.22,2.18-7.81l-47.24,48.71c-6.11,6.11-12.08,12.54-17.77,19.12-5.83,6.75-12.31,12.76-19.26,17.88-3.51,2.56-7.34,3.85-11.38,3.85Z"/>
  <path class="cls-1" d="M1280.04,654.86c-6.96,0-13.7-1.52-20.05-4.52-7.25-3.43-12.39-8.2-15.28-14.19-2.82-5.83-4.26-12.22-4.26-18.99s1.22-13.54,3.63-20.41c2.4-6.8,5.29-12.86,8.59-18l.07-.1c4.02-5.48,8.64-10.76,13.75-15.68,5.18-4.99,11-9.03,17.3-12,3.66-1.57,7.44-2.35,11.31-2.35,1.92,0,3.9.19,5.88.58,6.35,1.23,10.6,5.34,12.63,12.21l.03.11c1.55,6.63.56,12.96-2.94,18.79-3.38,5.63-8.12,10.57-14.11,14.68-5.92,4.08-12.41,7.08-19.27,8.94-4.31,1.17-8.44,1.76-12.28,1.76-1.65,0-3.27-.11-4.84-.33-.76,3.56-1.15,7.15-1.15,10.7,0,7.2,2.31,11.93,7.05,14.46,5.08,2.72,11.13,4.09,17.99,4.09,12.73,0,25.74-1.88,38.66-5.6,13.06-3.76,25.67-7.84,37.46-12.13,13.58-5,26.44-10.43,38.22-16.15,5.4-2.88,11.07-5.72,16.79-8.4,5.9-2.77,12.07-4.73,18.35-5.84l6.25-1.1-2.92,2.91c.4.25.77.56,1.13.91,1.79,1.79,1.86,4.18.18,6.4-5.2,7.06-11.8,12.71-19.6,16.8-7.48,3.92-14.96,7.75-22.21,11.38-17.36,7.96-34.55,14.54-51.16,19.6-7.31,2.19-14.81,4.2-22.3,5.98-7.53,1.8-15.23,3.27-22.9,4.36-6.54.73-13.26,1.1-20.03,1.1ZM1272.68,582.71c-1.54,1.92-2.98,3.86-4.33,5.81,3.44-1.21,6.84-2.48,10.15-3.78,4.68-1.84,8.95-5.17,12.68-9.92.98-1.3,2.1-3.12,3.33-5.39.23-.43.26-.68.25-.73h0s-.36-.55-2.4-.96l-.12-.02-.11-.04c-.07-.02-.15-.03-.25-.03-.33,0-1.08.12-2.42.93-2.05,1.23-2.98,1.99-3.4,2.41l-.17.17-.21.13c-4.97,2.98-9.35,6.8-13.06,11.38l.06.06Z"/>
  <path class="cls-1" d="M1388.9,893.29c-2.96,0-6.01-.24-9.09-.72-8.77-1.37-15.19-6.21-19.08-14.37-4.14-8.29-5.11-17.48-2.85-27.27,2.16-9.38,4.74-18.03,7.65-25.68,10.48-28.18,25.23-54.92,43.82-79.47,18.57-24.51,38.56-47.51,59.41-68.36,5.1-4.73,10.06-9.33,14.93-13.84,4.38-4.06,8.8-8.01,13.16-11.78-6.66-5.38-15.1-8.99-25.13-10.75-3.89-.68-7.7-1.02-11.3-1.02-6.51,0-12.63,1.13-18.18,3.34-1.05.39-2.02.59-2.93.59-1.81,0-4.3-.75-5.87-4.35-1.64-3.74-.73-7.1,2.56-9.46l.13-.09.14-.07c2.08-1.04,6.29-3.64,12.51-7.73,6.18-4.06,12.68-8.84,19.31-14.22,6.58-5.34,12.53-10.75,17.67-16.06,4.78-4.95,7.05-9.15,6.75-12.5-.06-.56-.19-1.68-3.28-1.68-1.12,0-2.49.16-4.07.49-5.98,1.24-12.58,3.47-19.6,6.63-7.12,3.2-14.01,6.46-20.48,9.7-8.58,4.29-10.73,5.22-11.57,5.5-.52.2-1.05.3-1.58.3-3.5,0-5.43-4.28-6.06-5.69-2.62-5.8-.87-8.4,1.06-9.56,3.65-2.2,9.11-4.97,16.69-8.49,7.42-3.44,15.24-6.47,23.22-9.02,8.07-2.56,15.81-3.96,23-4.15.27,0,.54-.01.81-.01,7.33,0,12.66,2.6,15.82,7.72,2.9,4.57,2.75,10.14-.45,16.55-2.96,5.92-7.07,11.71-12.22,17.24-5.12,5.48-10.56,10.55-16.17,15.07-3.2,2.58-5.99,4.74-8.34,6.46,6.38.69,13.12,1.6,20.11,2.72,8.82,1.41,16.91,5.04,24.06,10.77,6.03-4.67,11.44-8.72,16.11-12.05,5.14-3.66,11.37-7.7,18.53-11.99,12.3-7.23,25.73-14.18,39.96-20.66,14.39-6.56,29.11-10.26,43.73-10.99h.1c3.87,0,6.36,2.21,6.85,6.07.48,3.88-1.45,6.65-5.29,7.6-15.02,3.94-29.5,8.65-43.02,13.98-13.52,5.33-27.06,12.2-40.25,20.39-6.06,3.93-11.13,7.37-15.03,10.2-3.65,2.65-8.01,6.17-12.99,10.44,2.67,10.74,3.41,23.47,2.18,37.87-1.28,14.86-4.12,30.63-8.45,46.86-4.32,16.21-10.27,32.78-17.69,49.26-7.4,16.42-16.02,31.81-25.6,45.75-9.61,13.96-20.36,26.27-31.96,36.6-11.69,10.41-24.13,17.74-36.97,21.78-4.74,1.42-9.71,2.14-14.8,2.14ZM1504.87,666.11c-11.68,10.14-22.85,20.87-33.23,31.94-18.31,19.04-35.91,39.81-52.33,61.76-16.39,21.93-29.41,45.51-38.67,70.1-.99,2.65-2.14,5.82-3.5,9.69-1.23,3.51-2.3,7.17-3.19,10.89-.86,3.64-1.3,7.22-1.3,10.63s.67,6.48,1.99,9.47c2.16,4.58,5.72,6.82,10.86,6.82.79,0,1.62-.05,2.48-.16,7.12-.87,13.18-2.53,18.01-4.94,10.91-5.28,20.62-12.67,28.88-21.99,8.37-9.45,16.05-19.3,22.83-29.28,15.15-22.22,27.45-46.69,36.59-72.79l-1.15.58,1.66-4.67c3.92-11.06,7.17-22.71,9.66-34.63,2.46-11.78,3-23.64,1.6-35.24-.37-1.84-.65-3.8-.83-5.82-.07-.79-.2-1.58-.37-2.35Z"/>
  <path class="cls-1" d="M1676.96,691.75c-1.08,0-2.18-.04-3.28-.11-5.7-.39-10.77-2.77-15.07-7.07-4.38-4.37-6.4-9.35-5.99-14.81.36-4.97,1.3-9.95,2.79-14.78,2.17-7.24,4.83-14.93,7.89-22.85,2.21-5.74,4.8-11.37,7.7-16.79l-8.31,4.62c-4.32,2.89-8.47,5.77-12.31,8.56l-11.83,8.6c-3.01,2.63-5.88,4.87-8.77,6.85-3.2,2.2-7.04,3.32-11.41,3.32-2.18,0-4.17-.56-5.93-1.66-1.92-1.19-3.13-3-3.6-5.36-1.15-6.88-.38-13.7,2.27-20.34,2.57-6.41,5.53-12.42,8.8-17.87,4.01-6.91,8.61-13.72,13.66-20.21,5.1-6.56,10.84-12.49,17.08-17.63,4.03-3.3,8.87-6.46,14.39-9.41,2.45-1.31,4.89-1.97,7.26-1.97,3.58,0,7,1.49,10.18,4.42,3.1,3.1,5.78,7.12,8.03,11.99,1.97,4.26,3.37,8.73,4.19,13.32.53-.14,1.05-.21,1.58-.21,1.76,0,3.41.76,4.92,2.27,2.75,2.75,2.51,5.45,1.82,7.24-.67,1.99-1.34,3.41-2.06,4.39-.06,1.35-.29,2.44-.69,3.29-1.86,4.8-4.19,9.36-6.92,13.55-2.66,4.08-5.08,8.29-7.19,12.51-2.5,4.63-4.64,9.29-6.41,13.89-1.77,4.58-3.58,9.48-5.39,14.56-.68,2.02-1.38,4.22-2.14,6.68-.69,2.23-1.21,4.39-1.55,6.41-.39,5.34,1.8,5.98,2.63,6.22,1.52.45,3.18.68,4.96.68,1.46,0,3.03-.15,4.67-.45,4.77-1.02,9.3-2.76,13.42-5.17,4.17-2.43,8.34-4.96,12.37-7.53,8.63-5.39,17.04-11.18,25.02-17.22,7.96-6.01,16.03-12.36,24.01-18.89,7.11-6.04,14.16-12.56,20.95-19.34s14.32-12.56,22.48-17.25l.54-1.62.66-.38c1.36-.78,2.75-1.17,4.13-1.17,1.89,0,3.73.74,5.46,2.19,3.13,2.66,3.55,6.1,1.15,9.45-4.07,5.54-8.62,10.56-13.55,14.94-4.76,4.23-9.78,8.61-14.9,13-10.06,8.98-20.28,17.56-30.36,25.48-9.37,7.21-19.58,14.78-30.36,22.5-10.94,7.84-22.42,13.67-34.11,17.32-4.25,1.21-8.56,1.82-12.87,1.82ZM1670.23,574.54c-2.05,1.38-4.03,2.93-5.88,4.61-2,1.83-3.89,3.62-5.61,5.35-7.78,7.78-14.78,16.76-20.8,26.67-.98,1.48-2.03,3.07-3.18,4.84.53-.41,1.01-.76,1.44-1.05,6.5-4.69,12.92-8.91,19.03-12.5l.47-.28h1.59c3.91-2.47,8.05-4.93,12.32-7.32,4.06-2.27,8.2-4.41,12.34-6.36-.96-2.97-2.12-5.97-3.45-8.92-1.3-2.89-2.79-5.29-4.43-7.17-.82.76-1.57,1.24-2.31,1.48-.42.14-.93.36-1.51.65Z"/>
</svg>